<svg width="21" height="14" viewBox="0 0 21 14" fill="none" xmlns="http://www.w3.org/2000/svg">
<path d="M12.9159 0.256901C12.7444 0.428087 12.6474 0.660109 12.6461 0.90246C12.6448 1.14481 12.7393 1.37787 12.9089 1.5509L17.1769 5.8329H0.913948C0.671539 5.8329 0.43906 5.9292 0.267653 6.10061C0.0962448 6.27201 -5.14984e-05 6.50449 -5.14984e-05 6.7469C-5.14984e-05 6.98931 0.0962448 7.22179 0.267653 7.3932C0.43906 7.5646 0.671539 7.6609 0.913948 7.6609H17.1769L12.9019 11.9469C12.7337 12.1207 12.6402 12.3534 12.6415 12.5953C12.6428 12.8372 12.7388 13.069 12.9089 13.2409C12.9939 13.325 13.0946 13.3914 13.2053 13.4366C13.3159 13.4817 13.4344 13.5046 13.5539 13.504C13.6734 13.5033 13.7916 13.4791 13.9018 13.4328C14.0119 13.3865 14.1119 13.3189 14.1959 13.2339L19.9899 7.3939C20.0691 7.30931 20.1333 7.21194 20.1799 7.1059C20.2274 6.99469 20.2513 6.87482 20.2499 6.7539C20.2501 6.51481 20.1568 6.28513 19.9899 6.1139L14.1959 0.277901C14.1136 0.191855 14.0151 0.122997 13.906 0.0753145C13.7969 0.0276323 13.6794 0.00207435 13.5603 0.000121111C13.4413 -0.00183213 13.323 0.0198578 13.2124 0.0639353C13.1018 0.108013 13.001 0.173602 12.9159 0.256901Z" fill="white"/>
</svg>
