<svg width="38" height="38" viewBox="0 0 38 38" fill="none" xmlns="http://www.w3.org/2000/svg">
<path d="M4.75001 20.5832H33.25V33.253C33.25 34.1254 32.5454 34.8332 31.6778 34.8332H6.32226C6.11524 34.8328 5.91033 34.7915 5.71925 34.7119C5.52816 34.6322 5.35465 34.5157 5.20863 34.3689C5.06262 34.2222 4.94695 34.0481 4.86826 33.8566C4.78957 33.6651 4.74938 33.46 4.75001 33.253V20.5832ZM4.75001 4.74667C4.75001 3.87425 5.45459 3.1665 6.32226 3.1665H31.6778C32.5454 3.1665 33.25 3.87267 33.25 4.74667V17.4165H4.75001V4.74667ZM14.25 7.9165V11.0832H23.75V7.9165H14.25ZM14.25 25.3332V28.4998H23.75V25.3332H14.25Z" fill="white"/>
</svg>
