<svg width="294" height="422" viewBox="0 0 294 422" fill="none" xmlns="http://www.w3.org/2000/svg">
<path fill-rule="evenodd" clip-rule="evenodd" d="M177.659 -43.6696C210.329 -42.1341 238.344 -25.1483 267.142 -9.60508C300.999 8.66851 344.638 19.1036 359.689 54.5776C374.933 90.5061 357.141 131.411 342.288 167.503C328.426 201.186 311.102 237.139 278.194 252.605C246.998 267.266 212.11 245.239 177.659 244.874C143.777 244.516 109.98 263.44 78.6539 250.493C43.5999 236.006 5.46299 209.29 0.403234 171.617C-4.68952 133.698 39.8604 109.046 54.9358 73.8973C67.8717 43.7367 58.1885 4.36737 81.8643 -18.3137C106.341 -41.7618 143.842 -45.2591 177.659 -43.6696Z" fill="#324FE3"/>
<path fill-rule="evenodd" clip-rule="evenodd" d="M188.055 75.4399C214.283 55.8998 246.714 51.2556 278.836 44.9997C316.6 37.6448 356.952 18.0252 391.092 35.8967C425.67 53.9972 437.868 96.9035 449.285 134.226C459.94 169.056 469.358 207.838 453.733 240.671C438.921 271.795 397.979 276.903 371.117 298.478C344.7 319.696 330.582 355.766 298.153 365.633C261.866 376.674 215.437 380.218 187.625 354.308C159.632 328.229 178.428 280.91 167.782 244.176C158.646 212.656 126.184 188.367 130.095 155.815C134.138 122.161 160.907 95.6659 188.055 75.4399Z" fill="#3955EB"/>
</svg>
