<svg width="21" height="22" viewBox="0 0 21 22" fill="none" xmlns="http://www.w3.org/2000/svg">
<path d="M3.243 4.86415C3.243 4.73152 3.1903 4.60432 3.0965 4.51054L0.707325 2.12211C0.316698 1.7316 0.316933 1.09807 0.7075 0.7075C1.09807 0.316933 1.7316 0.316698 2.12211 0.707325L4.51055 3.0965C4.60432 3.1903 4.73152 3.243 4.86415 3.243H19.899C20.0549 3.24299 20.2086 3.27941 20.3479 3.34937C20.4872 3.41932 20.6082 3.52087 20.7012 3.6459C20.7943 3.77093 20.8569 3.91598 20.8839 4.06949C20.911 4.22299 20.9017 4.38069 20.857 4.53L18.457 12.53C18.3953 12.7361 18.2687 12.9168 18.0961 13.0452C17.9235 13.1737 17.7141 13.243 17.499 13.243H6.243C5.69072 13.243 5.243 13.6907 5.243 14.243C5.243 14.7953 5.69072 15.243 6.243 15.243H15.243C15.7953 15.243 16.243 15.6907 16.243 16.243C16.243 16.7953 15.7953 17.243 15.243 17.243H4.243C3.97778 17.243 3.72343 17.1376 3.53589 16.9501C3.34836 16.7626 3.243 16.5082 3.243 16.243V4.86415ZM4.743 21.243C4.34518 21.243 3.96365 21.085 3.68234 20.8037C3.40104 20.5224 3.243 20.1408 3.243 19.743C3.243 19.3452 3.40104 18.9636 3.68234 18.6823C3.96365 18.401 4.34518 18.243 4.743 18.243C5.14083 18.243 5.52236 18.401 5.80366 18.6823C6.08497 18.9636 6.243 19.3452 6.243 19.743C6.243 20.1408 6.08497 20.5224 5.80366 20.8037C5.52236 21.085 5.14083 21.243 4.743 21.243ZM16.743 21.243C16.3452 21.243 15.9636 21.085 15.6823 20.8037C15.401 20.5224 15.243 20.1408 15.243 19.743C15.243 19.3452 15.401 18.9636 15.6823 18.6823C15.9636 18.401 16.3452 18.243 16.743 18.243C17.1408 18.243 17.5224 18.401 17.8037 18.6823C18.085 18.9636 18.243 19.3452 18.243 19.743C18.243 20.1408 18.085 20.5224 17.8037 20.8037C17.5224 21.085 17.1408 21.243 16.743 21.243Z" fill="#2F49D1"/>
</svg>
