<svg width="24" height="24" viewBox="0 0 24 24" fill="none" xmlns="http://www.w3.org/2000/svg">
<g clip-path="url(#clip0)">
<path d="M4.00008 6.62099C4.00008 6.48835 3.94738 6.36115 3.85358 6.26738L1.46441 3.87894C1.07378 3.48844 1.07401 2.8549 1.46458 2.46434C1.85515 2.07377 2.48868 2.07353 2.87919 2.46416L5.26763 4.85334C5.3614 4.94714 5.4886 4.99984 5.62123 4.99984H20.6561C20.812 4.99983 20.9657 5.03625 21.105 5.1062C21.2442 5.17616 21.3652 5.2777 21.4583 5.40273C21.5514 5.52776 21.6139 5.67282 21.641 5.82632C21.668 5.97983 21.6588 6.13753 21.6141 6.28684L19.2141 14.2868C19.1523 14.4929 19.0258 14.6736 18.8532 14.802C18.6806 14.9305 18.4712 14.9999 18.2561 14.9998H7.00008C6.4478 14.9998 6.00008 15.4476 6.00008 15.9998C6.00008 16.5521 6.4478 16.9998 7.00008 16.9998H16.0001C16.5524 16.9998 17.0001 17.4476 17.0001 17.9998C17.0001 18.5521 16.5524 18.9998 16.0001 18.9998H5.00008C4.73486 18.9998 4.48051 18.8945 4.29297 18.7069C4.10544 18.5194 4.00008 18.2651 4.00008 17.9998V6.62099ZM5.50008 22.9998C5.10226 22.9998 4.72073 22.8418 4.43942 22.5605C4.15812 22.2792 4.00008 21.8977 4.00008 21.4998C4.00008 21.102 4.15812 20.7205 4.43942 20.4392C4.72073 20.1579 5.10226 19.9998 5.50008 19.9998C5.89791 19.9998 6.27944 20.1579 6.56074 20.4392C6.84205 20.7205 7.00008 21.102 7.00008 21.4998C7.00008 21.8977 6.84205 22.2792 6.56074 22.5605C6.27944 22.8418 5.89791 22.9998 5.50008 22.9998ZM17.5001 22.9998C17.1023 22.9998 16.7207 22.8418 16.4394 22.5605C16.1581 22.2792 16.0001 21.8977 16.0001 21.4998C16.0001 21.102 16.1581 20.7205 16.4394 20.4392C16.7207 20.1579 17.1023 19.9998 17.5001 19.9998C17.8979 19.9998 18.2794 20.1579 18.5607 20.4392C18.842 20.7205 19.0001 21.102 19.0001 21.4998C19.0001 21.8977 18.842 22.2792 18.5607 22.5605C18.2794 22.8418 17.8979 22.9998 17.5001 22.9998Z" fill="#2F49D1"/>
<rect x="17.25" y="2.25" width="7.5" height="7.5" rx="3.75" fill="#DC200E" stroke="white" stroke-width="1.5"/>
</g>
<defs>
<clipPath id="clip0">
<rect width="24" height="24" fill="white"/>
</clipPath>
</defs>
</svg>
