<svg width="38" height="38" viewBox="0 0 38 38" fill="none" xmlns="http://www.w3.org/2000/svg">
<path d="M6.33348 10.1553L1.19873 5.02216L3.43915 2.78174L8.57231 7.91649H32.7055C32.9523 7.91647 33.1956 7.97414 33.4162 8.0849C33.6367 8.19566 33.8283 8.35644 33.9757 8.55441C34.123 8.75237 34.2221 8.98205 34.2649 9.22509C34.3077 9.46814 34.2931 9.71783 34.2223 9.95424L30.4223 22.6209C30.3246 22.9472 30.1242 23.2333 29.8509 23.4366C29.5777 23.64 29.2461 23.7498 28.9055 23.7498H9.50015V26.9165H26.9168V30.0832H7.91681C7.49689 30.0832 7.09416 29.9163 6.79723 29.6194C6.5003 29.3225 6.33348 28.9197 6.33348 28.4998V10.1553ZM8.70848 36.4165C8.07859 36.4165 7.4745 36.1663 7.0291 35.7209C6.5837 35.2755 6.33348 34.6714 6.33348 34.0415C6.33348 33.4116 6.5837 32.8075 7.0291 32.3621C7.4745 31.9167 8.07859 31.6665 8.70848 31.6665C9.33837 31.6665 9.94246 31.9167 10.3879 32.3621C10.8333 32.8075 11.0835 33.4116 11.0835 34.0415C11.0835 34.6714 10.8333 35.2755 10.3879 35.7209C9.94246 36.1663 9.33837 36.4165 8.70848 36.4165ZM27.7085 36.4165C27.0786 36.4165 26.4745 36.1663 26.0291 35.7209C25.5837 35.2755 25.3335 34.6714 25.3335 34.0415C25.3335 33.4116 25.5837 32.8075 26.0291 32.3621C26.4745 31.9167 27.0786 31.6665 27.7085 31.6665C28.3384 31.6665 28.9425 31.9167 29.3879 32.3621C29.8333 32.8075 30.0835 33.4116 30.0835 34.0415C30.0835 34.6714 29.8333 35.2755 29.3879 35.7209C28.9425 36.1663 28.3384 36.4165 27.7085 36.4165Z" fill="white"/>
</svg>
