<svg width="28" height="28" viewBox="0 0 28 28" fill="none" xmlns="http://www.w3.org/2000/svg">
<path d="M4.6668 7.69012C4.6668 7.55749 4.6141 7.43029 4.5203 7.33652L1.59063 4.40774C1.2 4.01724 1.19995 3.38399 1.59052 2.99342L1.82692 2.75702C2.21749 2.36645 2.85073 2.3665 3.24124 2.75713L6.17001 5.6868C6.26378 5.78061 6.39098 5.8333 6.52362 5.8333H24.0988C24.2806 5.83329 24.46 5.87579 24.6225 5.9574C24.785 6.03901 24.9262 6.15748 25.0347 6.30335C25.1433 6.44922 25.2163 6.61845 25.2479 6.79754C25.2794 6.97663 25.2687 7.16061 25.2165 7.33481L22.4165 16.6681C22.3444 16.9086 22.1968 17.1194 21.9954 17.2692C21.7941 17.4191 21.5498 17.5 21.2988 17.5H8.00013C7.44785 17.5 7.00013 17.9477 7.00013 18.5V18.8333C7.00013 19.3856 7.44785 19.8333 8.00013 19.8333H18.8335C19.3858 19.8333 19.8335 20.281 19.8335 20.8333V21.1666C19.8335 21.7189 19.3858 22.1666 18.8335 22.1666H5.83347C5.52405 22.1666 5.2273 22.0437 5.00851 21.8249C4.78972 21.6061 4.6668 21.3094 4.6668 21V7.69012ZM6.4168 26.8333C5.95267 26.8333 5.50755 26.6489 5.17936 26.3207C4.85118 25.9926 4.6668 25.5474 4.6668 25.0833C4.6668 24.6192 4.85118 24.1741 5.17936 23.8459C5.50755 23.5177 5.95267 23.3333 6.4168 23.3333C6.88093 23.3333 7.32605 23.5177 7.65424 23.8459C7.98243 24.1741 8.1668 24.6192 8.1668 25.0833C8.1668 25.5474 7.98243 25.9926 7.65424 26.3207C7.32605 26.6489 6.88093 26.8333 6.4168 26.8333ZM20.4168 26.8333C19.9527 26.8333 19.5076 26.6489 19.1794 26.3207C18.8512 25.9926 18.6668 25.5474 18.6668 25.0833C18.6668 24.6192 18.8512 24.1741 19.1794 23.8459C19.5076 23.5177 19.9527 23.3333 20.4168 23.3333C20.8809 23.3333 21.326 23.5177 21.6542 23.8459C21.9824 24.1741 22.1668 24.6192 22.1668 25.0833C22.1668 25.5474 21.9824 25.9926 21.6542 26.3207C21.326 26.6489 20.8809 26.8333 20.4168 26.8333Z" fill="#2487FE"/>
</svg>
