<svg width="28" height="28" viewBox="0 0 28 28" fill="none" xmlns="http://www.w3.org/2000/svg">
<path d="M13.9999 25.6663C7.55642 25.6663 2.33325 20.4432 2.33325 13.9997C2.33325 7.55618 7.55642 2.33301 13.9999 2.33301C20.4434 2.33301 25.6666 7.55618 25.6666 13.9997C25.6666 20.4432 20.4434 25.6663 13.9999 25.6663ZM16.1666 13.9997C15.6143 13.9997 15.1666 13.552 15.1666 12.9997V9.16634C15.1666 8.61406 14.7189 8.16634 14.1666 8.16634H13.8333C13.281 8.16634 12.8333 8.61406 12.8333 9.16634V15.333C12.8333 15.8853 13.281 16.333 13.8333 16.333H18.8333C19.3855 16.333 19.8333 15.8853 19.8333 15.333V14.9997C19.8333 14.4474 19.3855 13.9997 18.8333 13.9997H16.1666Z" fill="#2487FE"/>
</svg>
