<svg width="38" height="39" viewBox="0 0 38 39" fill="none" xmlns="http://www.w3.org/2000/svg">
<g clip-path="url(#clip0_46_856)" filter="url(#filter0_d_46_856)">
<g filter="url(#filter1_d_46_856)">
<path d="M29.5 29.3337C29.5 29.6431 29.3771 29.9398 29.1583 30.1586C28.9395 30.3774 28.6428 30.5003 28.3333 30.5003H9.66667C9.35725 30.5003 9.0605 30.3774 8.84171 30.1586C8.62292 29.9398 8.5 29.6431 8.5 29.3337V17.072C8.49988 16.8942 8.54039 16.7187 8.61844 16.559C8.69648 16.3993 8.81001 16.2595 8.95033 16.1503L18.2837 8.89132C18.4885 8.732 18.7405 8.64551 19 8.64551C19.2595 8.64551 19.5115 8.732 19.7163 8.89132L29.0497 16.1503C29.19 16.2595 29.3035 16.3993 29.3816 16.559C29.4596 16.7187 29.5001 16.8942 29.5 17.072V29.3337Z" fill="#2487FE"/>
</g>
</g>
<defs>
<filter id="filter0_d_46_856" x="-3" y="-2" width="44" height="44" filterUnits="userSpaceOnUse" color-interpolation-filters="sRGB">
<feFlood flood-opacity="0" result="BackgroundImageFix"/>
<feColorMatrix in="SourceAlpha" type="matrix" values="0 0 0 0 0 0 0 0 0 0 0 0 0 0 0 0 0 0 127 0" result="hardAlpha"/>
<feOffset/>
<feGaussianBlur stdDeviation="4"/>
<feColorMatrix type="matrix" values="0 0 0 0 0.172549 0 0 0 0 0.243137 0 0 0 0 0.313726 0 0 0 0.15 0"/>
<feBlend mode="normal" in2="BackgroundImageFix" result="effect1_dropShadow_46_856"/>
<feBlend mode="normal" in="SourceGraphic" in2="effect1_dropShadow_46_856" result="shape"/>
</filter>
<filter id="filter1_d_46_856" x="0.5" y="4.64551" width="37" height="37.8545" filterUnits="userSpaceOnUse" color-interpolation-filters="sRGB">
<feFlood flood-opacity="0" result="BackgroundImageFix"/>
<feColorMatrix in="SourceAlpha" type="matrix" values="0 0 0 0 0 0 0 0 0 0 0 0 0 0 0 0 0 0 127 0" result="hardAlpha"/>
<feOffset dy="4"/>
<feGaussianBlur stdDeviation="4"/>
<feColorMatrix type="matrix" values="0 0 0 0 0 0 0 0 0 0.8 0 0 0 0 0.592157 0 0 0 0.05 0"/>
<feBlend mode="normal" in2="BackgroundImageFix" result="effect1_dropShadow_46_856"/>
<feBlend mode="normal" in="SourceGraphic" in2="effect1_dropShadow_46_856" result="shape"/>
</filter>
<clipPath id="clip0_46_856">
<rect width="28" height="28" fill="white" transform="translate(5 6)"/>
</clipPath>
</defs>
</svg>
