<svg width="38" height="38" viewBox="0 0 38 38" fill="none" xmlns="http://www.w3.org/2000/svg">
<path d="M14.2501 4.75H23.7501L26.9167 7.91667H33.2501C33.67 7.91667 34.0727 8.08348 34.3697 8.38041C34.6666 8.67735 34.8334 9.08007 34.8334 9.5V31.6667C34.8334 32.0866 34.6666 32.4893 34.3697 32.7863C34.0727 33.0832 33.67 33.25 33.2501 33.25H4.75008C4.33016 33.25 3.92743 33.0832 3.6305 32.7863C3.33356 32.4893 3.16675 32.0866 3.16675 31.6667V9.5C3.16675 9.08007 3.33356 8.67735 3.6305 8.38041C3.92743 8.08348 4.33016 7.91667 4.75008 7.91667H11.0834L14.2501 4.75ZM19.0001 30.0833C21.5196 30.0833 23.936 29.0824 25.7176 27.3008C27.4992 25.5193 28.5001 23.1029 28.5001 20.5833C28.5001 18.0638 27.4992 15.6474 25.7176 13.8658C23.936 12.0842 21.5196 11.0833 19.0001 11.0833C16.4805 11.0833 14.0642 12.0842 12.2826 13.8658C10.501 15.6474 9.50008 18.0638 9.50008 20.5833C9.50008 23.1029 10.501 25.5193 12.2826 27.3008C14.0642 29.0824 16.4805 30.0833 19.0001 30.0833ZM19.0001 26.9167C17.3204 26.9167 15.7095 26.2494 14.5217 25.0617C13.334 23.8739 12.6667 22.263 12.6667 20.5833C12.6667 18.9036 13.334 17.2927 14.5217 16.105C15.7095 14.9173 17.3204 14.25 19.0001 14.25C20.6798 14.25 22.2907 14.9173 23.4784 16.105C24.6662 17.2927 25.3334 18.9036 25.3334 20.5833C25.3334 22.263 24.6662 23.8739 23.4784 25.0617C22.2907 26.2494 20.6798 26.9167 19.0001 26.9167Z" fill="white"/>
</svg>
