<svg width="16" height="16" viewBox="0 0 16 16" fill="none" xmlns="http://www.w3.org/2000/svg">
<path d="M12.6666 14.6663H3.33325C2.80282 14.6663 2.29411 14.4556 1.91904 14.0806C1.54397 13.7055 1.33325 13.1968 1.33325 12.6663V1.99967C1.33325 1.82286 1.40349 1.65329 1.52851 1.52827C1.65354 1.40325 1.82311 1.33301 1.99992 1.33301H11.3333C11.5101 1.33301 11.6796 1.40325 11.8047 1.52827C11.9297 1.65329 11.9999 1.82286 11.9999 1.99967V9.99967H14.6666V12.6663C14.6666 13.1968 14.4559 13.7055 14.0808 14.0806C13.7057 14.4556 13.197 14.6663 12.6666 14.6663ZM11.9999 11.333V12.6663C11.9999 12.8432 12.0702 13.0127 12.1952 13.1377C12.3202 13.2628 12.4898 13.333 12.6666 13.333C12.8434 13.333 13.013 13.2628 13.138 13.1377C13.263 13.0127 13.3333 12.8432 13.3333 12.6663V11.333H11.9999ZM3.99992 4.66634V5.99967H9.33325V4.66634H3.99992ZM3.99992 7.33301V8.66634H9.33325V7.33301H3.99992ZM3.99992 9.99967V11.333H7.33325V9.99967H3.99992Z" fill="white"/>
</svg>
