<svg width="22" height="22" viewBox="0 0 22 22" fill="none" xmlns="http://www.w3.org/2000/svg">
<path d="M16.8337 15.9171L11 21.7508L5.16634 15.9171C4.01256 14.7633 3.22684 13.2933 2.90852 11.693C2.5902 10.0926 2.75358 8.43382 3.37801 6.92633C4.00243 5.41885 5.05986 4.13038 6.41656 3.22386C7.77326 2.31735 9.36831 1.8335 11 1.8335C12.6317 1.8335 14.2267 2.31735 15.5834 3.22386C16.9402 4.13038 17.9976 5.41885 18.622 6.92633C19.2464 8.43382 19.4098 10.0926 19.0915 11.693C18.7732 13.2933 17.9874 14.7633 16.8337 15.9171ZM11 11.9168C11.4862 11.9168 11.9525 11.7236 12.2964 11.3798C12.6402 11.036 12.8333 10.5697 12.8333 10.0834C12.8333 9.59719 12.6402 9.13088 12.2964 8.78706C11.9525 8.44325 11.4862 8.25009 11 8.25009C10.5138 8.25009 10.0475 8.44325 9.70364 8.78706C9.35982 9.13088 9.16667 9.59719 9.16667 10.0834C9.16667 10.5697 9.35982 11.036 9.70364 11.3798C10.0475 11.7236 10.5138 11.9168 11 11.9168Z" fill="#2F49D1"/>
</svg>
