<svg width="20" height="20" viewBox="0 0 20 20" fill="none" xmlns="http://www.w3.org/2000/svg">
<path d="M9.99992 11.6668V18.3335H3.33325C3.33325 16.5654 4.03563 14.8697 5.28587 13.6195C6.53612 12.3692 8.23181 11.6668 9.99992 11.6668ZM9.99992 10.8335C7.23742 10.8335 4.99992 8.596 4.99992 5.8335C4.99992 3.071 7.23742 0.833496 9.99992 0.833496C12.7624 0.833496 14.9999 3.071 14.9999 5.8335C14.9999 8.596 12.7624 10.8335 9.99992 10.8335ZM17.3566 17.3568L14.9999 19.7143L12.6433 17.3568C12.177 16.8907 11.8594 16.2968 11.7307 15.6501C11.602 15.0035 11.668 14.3332 11.9202 13.7241C12.1725 13.1149 12.5997 12.5943 13.1479 12.228C13.6961 11.8616 14.3406 11.6661 14.9999 11.6661C15.6592 11.6661 16.3037 11.8616 16.8519 12.228C17.4001 12.5943 17.8273 13.1149 18.0796 13.7241C18.3319 14.3332 18.3978 15.0035 18.2691 15.6501C18.1404 16.2968 17.8229 16.8907 17.3566 17.3568ZM14.9999 14.1668C14.7789 14.1668 14.5669 14.2546 14.4107 14.4109C14.2544 14.5672 14.1666 14.7791 14.1666 15.0002C14.1666 15.2212 14.2544 15.4331 14.4107 15.5894C14.5669 15.7457 14.7789 15.8335 14.9999 15.8335C15.2209 15.8335 15.4329 15.7457 15.5892 15.5894C15.7455 15.4331 15.8333 15.2212 15.8333 15.0002C15.8333 14.7791 15.7455 14.5672 15.5892 14.4109C15.4329 14.2546 15.2209 14.1668 14.9999 14.1668Z" fill="#2F49D1"/>
</svg>
