<svg width="114" height="74" viewBox="0 0 114 74" fill="none" xmlns="http://www.w3.org/2000/svg">
<path fill-rule="evenodd" clip-rule="evenodd" d="M71.1388 40.3316H79.2456V62.1851H88.9349V69.1046H71.1615L71.1388 40.3316ZM52.2283 46.5109C47.7967 47.4066 45.3849 51.7459 46.0247 56.0673C46.6062 59.9985 50.0562 63.8421 54.7519 62.9383C58.6004 62.1932 61.6017 58.2119 60.9263 53.4385C60.3691 49.4977 56.9239 45.5633 52.2283 46.5125V46.5109ZM37.5777 56.2601C36.6658 47.1539 43.7603 40.2247 51.8979 39.4569C61.0737 38.5936 68.518 45.1406 69.3554 53.2053C70.2965 62.245 63.1389 69.2229 55.0709 69.9728C45.9081 70.8297 38.3876 64.2875 37.5891 56.2552L37.5777 56.2601ZM13.6218 69.0674L6.57266 69.1063L6.55322 40.3316H13.4971C14.0656 40.4417 20.3 50.4695 21.2718 51.1692C23.7516 47.7386 26.1181 44.1137 28.5137 40.6102C28.7987 40.2538 28.4959 40.4692 28.8635 40.3316H35.8624V69.0901L28.7242 69.1014L28.7129 50.868C28.41 51.0526 28.0035 51.6908 27.7929 51.9743C27.2001 52.7696 22.0687 59.8089 21.7496 59.8851H20.5705C18.4356 57.0019 16.0044 53.4725 13.6347 50.868V69.069L13.6218 69.0674ZM83.5168 40.3316C83.5687 40.3915 83.9007 41.0037 84.0125 41.1641L93.3908 54.9773C94.0014 55.8568 93.8621 55.6786 93.8621 56.9355C93.8621 59.4348 93.7504 67.4638 93.8799 69.0982H101.558C101.687 67.4914 101.582 59.4202 101.579 56.9355C101.579 55.677 101.441 55.8568 102.047 54.974L109.881 43.3119C110.256 42.7612 111.642 40.8175 111.835 40.3316H102.638C102.073 40.4935 98.8736 47.4195 97.7657 48.7542C96.8522 47.98 93.3228 40.4806 92.6975 40.3316H83.5168ZM113.72 36.5122H0.24109C0.11799 38.3036 0.223273 40.4838 0.223273 42.319V65.7129C0.223273 69.1144 -0.547723 73.0665 4.50749 73.06H109.557C114.504 73.06 113.736 68.7548 113.736 65.6092V48.0739C113.736 45.5244 113.858 38.5369 113.72 36.5187V36.5122Z" fill="#DC200E"/>
<path fill-rule="evenodd" clip-rule="evenodd" d="M113.72 36.5187H0.241116C-0.118332 30.3349 -0.000240836 23.5011 0.114711 16.8489C0.17018 13.639 0.224918 10.4714 0.224918 7.43947C0.224918 7.11378 0.214612 6.74942 0.203725 6.36454C0.161227 4.86214 0.109885 3.04706 0.628234 1.99876C1.27937 0.681911 2.52657 0 4.50751 0C26.486 0.0572385 48.5113 0.0381488 70.5249 0.0190693C81.5272 0.00953338 92.5266 0 103.516 0H109.264C111.276 0 112.51 0.591206 113.26 1.88214C114.101 3.33261 113.88 19.5313 113.776 27.1491C113.753 28.7782 113.736 30.0148 113.736 30.6309C113.736 31.2197 113.745 31.831 113.754 32.45C113.774 33.8231 113.794 35.2336 113.72 36.5187ZM107.123 32.7123L99.2899 32.7042V4.31984V3.93596L107.478 3.9392V32.6604L107.123 32.7123ZM6.65364 32.7042H6.55969V4.31984V3.93596H13.9117L13.8874 25.8397L23.4892 25.8673L23.5006 32.6864L23.1215 32.7042H6.65364ZM33.5883 32.7042H25.4896L25.4783 32.7009V3.96349L33.577 3.93596L33.5883 4.31984V32.7042ZM55.9812 20.0151L58.3104 22.4188L58.312 22.4237C59.224 21.4907 59.5511 18.3873 59.2547 16.719C58.9563 14.9906 58.1434 13.3925 56.9223 12.1335C52.8859 8.05982 46.0927 10.0084 44.5718 16.1245C43.6437 19.8596 45.1306 23.7924 48.3846 25.7361C49.6545 26.4909 52.366 27.1145 53.8756 26.2787L51.4281 23.5737C51.1429 23.3111 50.8969 23.0089 50.6976 22.6764L55.9812 20.0151ZM65.9507 30.4803L63.9487 28.4216L63.9439 28.4248C64.0215 28.2202 64.2946 27.8952 64.5246 27.6216C64.6114 27.5183 64.6921 27.4223 64.7538 27.3428C69.9823 20.5885 68.3528 11.0871 61.2729 5.93148C55.6038 1.80438 47.3529 2.18016 42.0596 6.20846C29.398 15.8378 37.6684 34.9718 53.3443 33.5821C55.6138 33.38 56.9603 32.8383 57.9121 32.4554C58.3869 32.2644 58.7634 32.1129 59.1073 32.0628C59.3125 32.4006 59.5632 32.7085 59.8524 32.9779L62.1962 35.5063C62.5566 35.456 63.8649 34.7895 64.6535 34.3877C64.8536 34.2857 65.0203 34.2008 65.1295 34.1474L67.9787 32.6783C67.8799 32.505 66.1289 30.6423 65.9507 30.4803ZM70.0471 25.3327C69.8592 24.1147 69.9466 5.20098 69.9823 3.93596L78.0016 3.94406C78.0838 7.04214 78.0562 10.224 78.0288 13.3836C78.0152 14.955 78.0016 16.5209 78.0016 18.0682C78.0016 18.4774 77.9903 18.9004 77.9789 19.3292C77.931 21.1292 77.8803 23.0299 78.6495 24.4257C80.5057 27.7866 85.9011 27.8271 87.8156 24.4824C88.6143 23.0899 88.566 21.1862 88.5193 19.3412C88.5084 18.9113 88.4975 18.4845 88.4975 18.0682C88.4975 16.5209 88.4831 14.955 88.4685 13.3836C88.4393 10.224 88.4099 7.04214 88.4975 3.94406H96.4262C96.5261 6.32321 96.5007 8.84414 96.4757 11.3199C96.4647 12.4141 96.4537 13.4994 96.4537 14.5598V19.9196C96.4537 20.3521 96.4653 20.8526 96.4775 21.3804C96.5086 22.7261 96.5438 24.2496 96.4019 25.2793C95.9759 28.3568 93.9593 30.4349 92.0043 31.5963C87.4868 34.2786 79.0836 34.2429 74.4754 31.606C72.5334 30.4932 70.5087 28.3293 70.0471 25.3327Z" fill="#2F49D1"/>
<path fill-rule="evenodd" clip-rule="evenodd" d="M58.3104 22.4188C59.2223 21.4858 59.5495 18.3824 59.2531 16.7141C58.9547 14.9857 58.1418 13.3876 56.9207 12.1286C52.8843 8.05494 46.0911 10.0035 44.5701 16.1196C43.642 19.8548 45.129 23.7956 48.383 25.7312C49.6529 26.486 52.3643 27.1096 53.8739 26.2738L51.4265 23.5688C51.1422 23.3076 50.8968 23.0071 50.6976 22.6763L55.9828 20.02L58.3104 22.4188Z" fill="#2F49D1"/>
</svg>
