<svg width="38" height="38" viewBox="0 0 38 38" fill="none" xmlns="http://www.w3.org/2000/svg">
<path d="M18.9999 22.1668V34.8335H6.33325C6.33325 31.4741 7.66777 28.2523 10.0432 25.8768C12.4187 23.5013 15.6405 22.1668 18.9999 22.1668ZM18.9999 20.5835C13.7512 20.5835 9.49992 16.3322 9.49992 11.0835C9.49992 5.83475 13.7512 1.5835 18.9999 1.5835C24.2487 1.5835 28.4999 5.83475 28.4999 11.0835C28.4999 16.3322 24.2487 20.5835 18.9999 20.5835ZM23.1087 29.7858C22.9079 28.941 22.9079 28.0609 23.1087 27.2161L21.538 26.3088L23.1213 23.5665L24.692 24.4737C25.3224 23.8766 26.0845 23.4362 26.9166 23.1881V21.3752H30.0833V23.1881C30.9256 23.4382 31.6856 23.8847 32.3078 24.4737L33.8785 23.5665L35.4618 26.3088L33.8912 27.2161C34.0917 28.0604 34.0917 28.9399 33.8912 29.7842L35.4618 30.6915L33.8785 33.4338L32.3078 32.5266C31.6774 33.1237 30.9154 33.5641 30.0833 33.8122V35.6252H26.9166V33.8122C26.0845 33.5641 25.3224 33.1237 24.692 32.5266L23.1213 33.4338L21.538 30.6915L23.1087 29.7858ZM28.4999 26.9168C28.08 26.9168 27.6773 27.0836 27.3803 27.3806C27.0834 27.6775 26.9166 28.0802 26.9166 28.5002C26.9166 28.9201 27.0834 29.3228 27.3803 29.6198C27.6773 29.9167 28.08 30.0835 28.4999 30.0835C28.9198 30.0835 29.3226 29.9167 29.6195 29.6198C29.9164 29.3228 30.0833 28.9201 30.0833 28.5002C30.0833 28.0802 29.9164 27.6775 29.6195 27.3806C29.3226 27.0836 28.9198 26.9168 28.4999 26.9168Z" fill="white"/>
</svg>
