<svg width="95" height="95" viewBox="0 0 95 95" fill="none" xmlns="http://www.w3.org/2000/svg">
<path d="M87.3458 47.3067C87.3458 55.2265 84.9973 62.9684 80.5973 69.5535C76.1973 76.1386 69.9434 81.271 62.6264 84.3018C55.3095 87.3326 47.2581 88.1256 39.4905 86.5805C31.7229 85.0354 24.5878 81.2217 18.9877 75.6215C13.3875 70.0214 9.57379 62.8863 8.02872 55.1187C6.48364 47.3511 7.27663 39.2997 10.3074 31.9828C13.3382 24.6658 18.4706 18.4119 25.0557 14.0119C31.6408 9.61192 39.3827 7.26343 47.3025 7.26343C57.9227 7.26343 68.1078 11.4823 75.6174 18.9918C83.127 26.5014 87.3458 36.6865 87.3458 47.3067Z" fill="#FF002A"/>
<path d="M93.6 47.3069C93.5986 56.4639 90.882 65.4149 85.7937 73.0279C80.7053 80.641 73.4738 86.5743 65.0134 90.0776C56.5531 93.5809 47.2439 94.4968 38.2631 92.7095C29.2822 90.9222 21.033 86.512 14.5585 80.0366C8.08404 73.5611 3.67509 65.3113 1.88915 56.3301C0.103222 47.349 1.02052 38.04 4.52506 29.5802C8.0296 21.1203 13.964 13.8897 21.5778 8.80247C29.1917 3.71527 38.143 1 47.3 1C53.3808 1 59.402 2.19781 65.0199 4.52504C70.6377 6.85227 75.7421 10.2633 80.0415 14.5634C84.341 18.8635 87.7512 23.9684 90.0776 29.5866C92.404 35.2047 93.6009 41.2262 93.6 47.3069V47.3069Z" stroke="#FF002A" stroke-width="1.959" stroke-miterlimit="10"/>
<path d="M59.9818 39.2175C59.303 39.3022 58.6794 39.6348 58.231 40.1515C57.7826 40.6681 57.541 41.3324 57.5528 42.0164V49.9416C57.5528 50.0854 57.4957 50.2233 57.394 50.325C57.2923 50.4267 57.1544 50.4838 57.0106 50.4838C56.8668 50.4838 56.7288 50.4267 56.6271 50.325C56.5254 50.2233 56.4683 50.0854 56.4683 49.9416V30.3371C56.4787 29.654 56.2373 28.9909 55.79 28.4744C55.3428 27.958 54.7211 27.6242 54.0435 27.5368C53.6691 27.5 53.2912 27.5419 52.934 27.6599C52.5768 27.7779 52.2483 27.9694 51.9696 28.222C51.6909 28.4747 51.4682 28.7829 51.3158 29.1268C51.1634 29.4707 51.0847 29.8427 51.0847 30.2189V44.957C51.0847 45.1009 51.0276 45.2388 50.9259 45.3405C50.8242 45.4422 50.6863 45.4993 50.5425 45.4993C50.4711 45.4995 50.4005 45.4856 50.3345 45.4584C50.2686 45.4313 50.2086 45.3913 50.1581 45.341C50.1076 45.2906 50.0676 45.2308 50.0402 45.1649C50.0129 45.099 49.9988 45.0284 49.9988 44.957V28.0763C50.0103 27.3925 49.7686 26.7287 49.3202 26.2123C48.8718 25.6959 48.2484 25.3635 47.5698 25.2789C47.1955 25.242 46.8175 25.2839 46.4603 25.4019C46.1032 25.5199 45.7746 25.7114 45.4959 25.964C45.2172 26.2167 44.9945 26.5249 44.8421 26.8688C44.6897 27.2127 44.611 27.5847 44.6111 27.9609V44.9543C44.6111 45.0981 44.5539 45.236 44.4523 45.3377C44.3506 45.4394 44.2126 45.4965 44.0688 45.4965C43.9976 45.4967 43.927 45.4828 43.8611 45.4556C43.7952 45.4284 43.7354 45.3885 43.685 45.3381C43.6346 45.2877 43.5947 45.2279 43.5675 45.162C43.5403 45.0961 43.5264 45.0255 43.5266 44.9543V30.059C43.5379 29.3752 43.296 28.7113 42.8473 28.1951C42.3986 27.6789 41.7749 27.3469 41.0962 27.2629C40.7219 27.2258 40.344 27.2676 39.9868 27.3854C39.6296 27.5033 39.3011 27.6946 39.0223 27.9471C38.7436 28.1997 38.5208 28.5078 38.3684 28.8517C38.216 29.1955 38.1373 29.5675 38.1374 29.9436V44.9598C38.1374 45.1036 38.0803 45.2416 37.9786 45.3433C37.8769 45.4449 37.739 45.5021 37.5952 45.5021C37.5238 45.5023 37.4532 45.4884 37.3872 45.4612C37.3213 45.434 37.2613 45.3941 37.2108 45.3437C37.1603 45.2934 37.1203 45.2335 37.0929 45.1677C37.0656 45.1018 37.0515 45.0312 37.0515 44.9598V33.0289C37.0629 32.3451 36.8213 31.6812 36.3729 31.1649C35.9245 30.6485 35.3011 30.316 34.6225 30.2314C34.2478 30.1937 33.8694 30.235 33.5116 30.3525C33.1539 30.4701 32.8247 30.6613 32.5454 30.9139C32.2661 31.1665 32.0429 31.4748 31.89 31.819C31.7372 32.1631 31.6582 32.5355 31.6582 32.9121V53.3786C31.6263 57.4915 33.1943 61.4557 36.0311 64.4339C38.8678 67.4121 42.7512 69.1709 46.8607 69.3389C48.9509 69.3977 51.0317 69.0367 52.98 68.2774C54.9283 67.5181 56.7046 66.3759 58.2038 64.9182C59.7031 63.4606 60.8949 61.7172 61.7087 59.791C62.5225 57.8648 62.9419 55.795 62.942 53.704V41.8996C62.9418 41.5233 62.863 41.1513 62.7104 40.8074C62.5579 40.4634 62.335 40.1553 62.0562 39.9026C61.7774 39.65 61.4488 39.4585 61.0915 39.3406C60.7343 39.2226 60.3563 39.1806 59.9818 39.2175Z" fill="white"/>
</svg>
