<svg width="28" height="28" viewBox="0 0 28 28" fill="none" xmlns="http://www.w3.org/2000/svg">
<path d="M5.66675 25.667C5.11446 25.667 4.6612 25.218 4.72024 24.6688C4.94696 22.5605 5.88697 20.5808 7.40042 19.0673C9.15076 17.317 11.5247 16.3337 14.0001 16.3337C16.4754 16.3337 18.8494 17.317 20.5997 19.0673C22.1132 20.5808 23.0532 22.5605 23.2799 24.6688C23.339 25.218 22.8857 25.667 22.3334 25.667H5.66675ZM14.0001 15.167C10.1326 15.167 7.00008 12.0345 7.00008 8.16699C7.00008 4.29949 10.1326 1.16699 14.0001 1.16699C17.8676 1.16699 21.0001 4.29949 21.0001 8.16699C21.0001 12.0345 17.8676 15.167 14.0001 15.167Z" fill="#2487FE"/>
</svg>
