<svg width="102" height="102" viewBox="0 0 102 102" fill="none" xmlns="http://www.w3.org/2000/svg">
<path d="M102 51C102 61.0876 99.0084 70.9487 93.4037 79.336C87.7989 87.7233 79.8327 94.26 70.5126 98.1196C61.1926 101.979 50.9372 102.988 41.0437 101.019C31.1502 99.0494 22.0629 94.1903 14.9311 87.056C7.79937 79.9217 2.94353 70.8326 0.977749 60.9384C-0.988035 51.0442 0.0245393 40.7892 3.88741 31.4705C7.75027 22.1518 14.2899 14.1879 22.6792 8.58618C31.0685 2.98442 40.9306 -0.00360719 51.0183 3.26804e-06C57.7148 2.83882e-06 64.3458 1.31929 70.5323 3.8825C76.7189 6.44572 82.3399 10.2026 87.0742 14.9387C91.8086 19.6747 95.5635 25.297 98.1245 31.4845C100.685 37.672 102.002 44.3034 102 51Z" fill="#2F49D1"/>
<path d="M15.8276 88.2307C17.5518 87.7909 19.2653 87.3196 20.9322 86.702C22.5291 86.2838 24.0638 85.6543 25.4957 84.8296C27.5379 84.2047 29.5153 83.3832 31.4004 82.3766C31.8018 82.1801 32.1552 81.8971 32.4353 81.5474C32.7154 81.1977 32.9154 80.7904 33.0209 80.3543C33.2719 79.5433 33.4711 78.7196 33.6704 77.8954C33.8854 77.0067 34.1005 76.1171 34.3807 75.2426C34.5483 74.4564 35.1444 74.4564 35.8336 74.4564C36.0626 74.4564 36.2917 74.5391 36.5214 74.6219C36.9829 74.7887 37.4472 74.9565 37.9198 74.4564C38.4679 72.6649 38.5848 70.7682 38.261 68.9223C37.9371 67.0769 37.1818 65.3348 36.0571 63.8399C36.0449 63.7581 36.0417 63.6754 36.0473 63.5931C36.0494 63.5629 36.0527 63.5327 36.0571 63.5026C35.9009 62.4443 35.5128 61.4336 34.9209 60.5445C34.8023 60.1628 34.6761 59.7852 34.5502 59.408C34.2807 58.6012 34.0124 57.7976 33.8219 56.9679C33.7766 56.6104 33.6294 56.2735 33.398 55.9974C33.1667 55.7217 32.8611 55.5192 32.518 55.4141C32.099 55.2715 31.7301 55.0095 31.4557 54.6607C31.1813 54.3119 31.0134 53.8905 30.972 53.448C30.6737 51.8526 30.1067 50.3203 29.2956 48.9169C28.7554 47.2689 28.2711 45.6027 27.8055 43.9172C27.5113 42.7415 27.4669 41.5164 27.6751 40.3223C27.6991 39.7623 27.8894 39.222 28.2213 38.7717C28.5533 38.321 29.0117 37.9809 29.5377 37.7944C29.924 37.6806 30.2534 37.4246 30.4605 37.0776C30.6676 36.7311 30.7372 36.3183 30.6554 35.922C30.6169 34.1556 30.3922 32.3984 29.9848 30.6796C29.7397 28.66 29.7085 26.6203 29.8916 24.5942C29.9441 24.474 30.0201 24.3657 30.1152 24.2756L30.3014 24.1444C30.1792 22.9861 30.3449 21.8149 30.7838 20.7365C31.2227 19.6581 31.921 18.7059 32.8161 17.9658C33.7688 17.1005 34.5798 16.0893 35.2189 14.9698C35.5554 14.3298 36.0573 13.7931 36.6718 13.4155V13.2661C39.1648 11.0206 42.1587 9.41106 45.4006 8.57359C48.6427 7.73613 52.0375 7.69499 55.2986 8.45382C58.6806 9.00193 61.9714 10.0163 65.0777 11.4686C68.6581 13.2889 71.6444 16.1021 73.6833 19.5758C74.6068 21.4428 75.1272 23.4843 75.2107 25.5675C75.2773 26.1837 75.382 26.7994 75.4362 27.4152C75.4578 27.6607 75.4714 27.9062 75.4714 28.1516C75.4609 28.3011 75.4609 28.4515 75.4714 28.601C75.3038 31.4471 75.1362 34.312 74.9499 37.1581C74.9127 37.8881 75.0616 38.3375 75.8626 38.5624C76.2655 38.6753 76.6187 38.9217 76.8654 39.2613C77.1121 39.601 77.2378 40.0142 77.2224 40.4348V42.3072C77.2745 42.3355 77.3313 42.3547 77.39 42.3634C77.4796 42.4503 77.544 42.5604 77.5763 42.6816V43.599C77.3309 45.0692 76.9633 46.516 76.4773 47.9244C75.5896 49.923 74.8609 51.9888 74.2979 54.103C74.2289 54.4248 74.0565 54.7142 73.8074 54.9277C73.5583 55.1407 73.2463 55.2655 72.9196 55.2829C71.8392 55.3204 71.4667 55.9942 71.2432 56.8184C70.2869 60.4329 68.996 63.9496 67.3874 67.3224C66.1635 68.2494 66.201 69.5303 66.2384 70.8057C66.2448 71.0247 66.2512 71.2436 66.2512 71.4603C66.2713 71.8242 66.324 72.0898 66.3887 72.4166C66.4438 72.695 66.5078 73.0173 66.5678 73.4827C66.6982 74.4939 67.1825 74.6813 68.0579 74.4939C68.484 74.3311 68.9545 74.3311 69.3805 74.4939C69.8647 74.6251 69.9579 74.9994 70.051 75.4301C70.1442 76.2076 70.2937 76.9775 70.4981 77.7331C70.5555 77.9429 70.6143 78.1514 70.673 78.3589C70.8238 78.8928 70.9734 79.4222 71.0941 79.9612C71.138 80.2135 71.2424 80.4507 71.3982 80.6528C71.4852 80.7657 71.5868 80.8663 71.6999 80.9508C71.7893 81.018 71.886 81.0756 71.9882 81.1223C72.2485 81.3316 72.5271 81.5044 72.8047 81.6791C72.9244 81.754 73.0439 81.8295 73.1617 81.9085C73.7957 82.7273 74.6899 83.3019 75.6949 83.5378C75.8579 83.5784 76.0067 83.6662 76.1521 83.7517C76.339 83.8619 76.5204 83.9684 76.7195 83.9684C77.2067 84.4836 77.8754 84.7857 78.5821 84.8109C80.6018 85.8856 82.7078 86.7875 84.878 87.507C85.2582 87.8453 85.6994 88.099 86.1725 88.2572C81.719 92.359 76.5655 95.6719 70.9263 98.0192C61.4155 101.978 50.9504 103.013 40.8544 100.993C31.4932 99.12 22.8393 94.6982 15.8276 88.2307Z" fill="white"/>
</svg>
