<svg width="38" height="38" viewBox="0 0 38 38" fill="none" xmlns="http://www.w3.org/2000/svg">
<path d="M19.0001 34.8332C10.2553 34.8332 3.16675 27.7446 3.16675 18.9998C3.16675 10.2551 10.2553 3.1665 19.0001 3.1665C27.7448 3.1665 34.8334 10.2551 34.8334 18.9998C34.8334 27.7446 27.7448 34.8332 19.0001 34.8332ZM13.4584 22.1665V25.3332H17.4167V28.4998H20.5834V25.3332H22.1667C23.2166 25.3332 24.2234 24.9161 24.9657 24.1738C25.708 23.4315 26.1251 22.4247 26.1251 21.3748C26.1251 20.325 25.708 19.3182 24.9657 18.5759C24.2234 17.8335 23.2166 17.4165 22.1667 17.4165H15.8334C15.6235 17.4165 15.4221 17.3331 15.2736 17.1846C15.1252 17.0362 15.0417 16.8348 15.0417 16.6248C15.0417 16.4149 15.1252 16.2135 15.2736 16.065C15.4221 15.9166 15.6235 15.8332 15.8334 15.8332H24.5417V12.6665H20.5834V9.49984H17.4167V12.6665H15.8334C14.7836 12.6665 13.7768 13.0835 13.0345 13.8259C12.2921 14.5682 11.8751 15.575 11.8751 16.6248C11.8751 17.6747 12.2921 18.6815 13.0345 19.4238C13.7768 20.1661 14.7836 20.5832 15.8334 20.5832H22.1667C22.3767 20.5832 22.5781 20.6666 22.7265 20.815C22.875 20.9635 22.9584 21.1649 22.9584 21.3748C22.9584 21.5848 22.875 21.7862 22.7265 21.9346C22.5781 22.0831 22.3767 22.1665 22.1667 22.1665H13.4584Z" fill="white"/>
</svg>
