<svg width="64" height="33" viewBox="0 0 64 33" fill="none" xmlns="http://www.w3.org/2000/svg">
<rect width="64" height="33" rx="16.5" fill="#2F49D1"/>
<path d="M34.9159 10.2569C34.7444 10.4281 34.6474 10.6601 34.6461 10.9025C34.6448 11.1448 34.7393 11.3779 34.9089 11.5509L39.1769 15.8329H22.9139C22.6715 15.8329 22.4391 15.9292 22.2677 16.1006C22.0962 16.272 21.9999 16.5045 21.9999 16.7469C21.9999 16.9893 22.0962 17.2218 22.2677 17.3932C22.4391 17.5646 22.6715 17.6609 22.9139 17.6609H39.1769L34.9019 21.9469C34.7337 22.1207 34.6402 22.3534 34.6415 22.5953C34.6428 22.8372 34.7388 23.069 34.9089 23.2409C34.9939 23.325 35.0946 23.3914 35.2053 23.4366C35.3159 23.4817 35.4344 23.5046 35.5539 23.504C35.6734 23.5033 35.7916 23.4791 35.9018 23.4328C36.0119 23.3865 36.1119 23.3189 36.1959 23.2339L41.9899 17.3939C42.0691 17.3093 42.1333 17.2119 42.1799 17.1059C42.2274 16.9947 42.2513 16.8748 42.2499 16.7539C42.2501 16.5148 42.1568 16.2851 41.9899 16.1139L36.1959 10.2779C36.1136 10.1919 36.0151 10.123 35.906 10.0753C35.7969 10.0276 35.6794 10.0021 35.5603 10.0001C35.4413 9.99817 35.323 10.0199 35.2124 10.0639C35.1018 10.108 35.001 10.1736 34.9159 10.2569V10.2569Z" fill="white"/>
</svg>
